#!OML:ASF H:\ColoradoDance\Project 1\Capture day 1\Session 8\male.ASF
:FULLY-SPECIFIED
:DEGREES
58
upperback -1.783040 -4.402940 4.249820
rfoot -23.744499 -1.887440
lradius 29.441000
lthumb 25.668301 424.178009
rradius 27.161301
lwrist -13.070800
rhand -38.074200 -15.208800
rhumerus -51.712299 -12.357200 -25.151800
lowerneck -7.583270 -0.964167 4.245950
lhand 0.081395 -324.112000
ltibia 27.203800
head 6.858540 -0.561851 -1.525280
rwrist -2.280690
lfingers 7.125020
rtoes -19.601999
lowerback 3.070340 -3.661080 6.459720
rfingers 7.125020
lclavicle 0.000000 -0.000000
upperneck 18.562901 -1.466380 -2.182090
rfemur -22.095400 33.604198 -0.950166
thorax -3.727450 -2.274760 1.077310
rclavicle 0.000000 -0.000000
rtibia 29.353300
lfoot -17.409599 -0.236148
lhumerus -34.037201 -0.125391 72.763603
rthumb -11.110800 -44.894699
root -18.817301 19.508101 -41.828999 377.360992 40.557800 -361.042999
ltoes -9.534840
lfemur -37.089100 -12.524800 1.601570
59
upperback -1.102760 -2.257970 1.858630
rfoot -20.469999 -26.470699
lradius 24.964199
lthumb 8.034990 411.750000
rradius 25.498199
lwrist -13.271700
rhand -34.797901 -9.379930
rhumerus -53.906601 -12.909200 -35.638500
lowerneck -6.491240 4.027030 7.915800
lhand -18.243900 -338.076996
ltibia 44.764400
head 6.757770 2.696970 -4.061530
rwrist 5.195600
lfingers 7.125020
rtoes -3.391960
lowerback 2.826600 -1.861550 4.494210
rfingers 7.125020
lclavicle -0.000000 -0.000000
upperneck 16.936300 6.159710 -10.012800
rfemur -19.202400 -0.750351 4.594900
thorax -2.821080 -1.188120 -0.482702
rclavicle -0.000000 -0.000000
rtibia 40.214600
lfoot -26.481199 5.950890
lhumerus -35.855301 3.505200 74.120598
rthumb -7.949710 -39.210400
root -14.338000 19.201799 -43.207600 380.003998 -5.058220 -357.990997
ltoes -11.594600
lfemur -40.471298 21.871300 -31.496201
60
upperback -2.607200 -0.544966 0.674852
rfoot -2.963000 -19.122999
lradius 18.805500
lthumb 7.844440 413.049011
rradius 26.160400
lwrist -24.297100
rhand -32.451000 -7.312060
rhumerus -54.441700 -14.183400 -50.685200
lowerneck -4.221980 6.972870 12.088800
lhand -18.441299 -336.786011
ltibia 49.356499
head 6.344270 4.745020 -6.112720
rwrist 9.914260
lfingers 7.125020
rtoes -30.269100
lowerback 2.315810 -0.550438 4.203930
rfingers 7.125020
lclavicle 0.000000 0.000000
upperneck 13.975400 10.439800 -15.204200
rfemur 1.742010 -5.257190 22.759701
thorax -4.025270 -0.388634 -1.627050
rclavicle 0.000000 0.000000
rtibia 31.145300
lfoot -33.063099 19.836500
lhumerus -43.728600 11.022300 66.729202
rthumb -5.684160 -37.215801
root -11.179700 18.808399 -43.776798 381.544006 -40.026199 -361.463013
ltoes 6.345530
lfemur -52.833302 29.868799 -47.063000
61
upperback -1.718240 -0.284734 -0.225192
rfoot -26.051701 -17.615900
lradius 20.752600
lthumb 8.829330 410.665985
rradius 30.238001
lwrist -20.945700
rhand -28.066799 -4.970050
rhumerus -48.662899 -12.314700 -67.012604
lowerneck -2.685780 8.192470 11.257600
lhand -17.420799 -339.130005
ltibia 56.343899
head 5.117990 5.539950 -6.744790
rwrist 10.316100
lfingers 7.125020
rtoes -27.999599
lowerback 2.909650 -0.317191 3.411740
rfingers 7.125020
lclavicle -0.000000 -0.000000
upperneck 9.628800 12.109900 -17.967300
rfemur 3.093650 2.783340 25.207001
thorax -3.421400 -0.225161 -2.128840
rclavicle -0.000000 -0.000000
rtibia 22.241699
lfoot -17.753099 1.186680
lhumerus -37.382900 5.424600 67.741699
rthumb -1.450460 -34.944901
root -7.779840 18.506100 -44.699600 378.446014 -64.472801 -359.016998
ltoes -4.916430
lfemur -61.327202 23.569099 -45.870098
62
upperback -2.173760 -2.683640 1.568180
rfoot -35.085300 -11.985300
lradius 17.345900
lthumb 4.761630 413.427002
rradius 36.428398
lwrist -25.590700
rhand -36.775398 -24.033300
rhumerus -58.707600 -10.713400 -65.911598
lowerneck 0.070672 10.853900 11.145100
lhand -21.634600 -336.498993
ltibia 70.618301
head 4.978020 7.453880 -5.476750
rwrist 2.285200
lfingers 7.125020
rtoes -14.625500
lowerback 1.562640 -2.129350 4.733190
rfingers 7.125020
lclavicle -0.000000 -0.000000
upperneck 9.867340 15.559700 -14.730100
rfemur -2.500430 2.704620 25.946899
thorax -3.259960 -1.443260 -0.910388
rclavicle -0.000000 -0.000000
rtibia 29.967600
lfoot -19.448000 12.221700
lhumerus -35.236900 5.079790 57.454498
rthumb -9.857990 -53.782501
root -6.024410 18.291300 -45.286400 405.859985 -78.023102 -391.835999
ltoes 3.713600
lfemur -44.419102 30.711800 -10.024100
63
upperback -2.240370 -6.004920 1.376760
rfoot -21.214199 0.738684
lradius 17.073700
lthumb 4.364450 413.666992
rradius 16.889000
lwrist -28.140600
rhand -35.365501 -12.754200
rhumerus -75.286499 -15.050000 -45.671101
lowerneck -1.810890 8.559850 11.457700
lhand -22.045900 -336.268005
ltibia 54.329700
head 5.746820 5.827050 -4.936100
rwrist 15.148200
lfingers 7.125020
rtoes -31.235399
lowerback 1.119670 -4.523880 0.745203
rfingers 7.125020
lclavicle -0.000000 -0.000000
upperneck 13.253800 12.263800 -12.223900
rfemur -9.414160 -9.927380 19.204100
thorax -2.855600 -3.005320 1.210940
rclavicle -0.000000 -0.000000
rtibia 58.084900
lfoot -30.140900 12.821100
lhumerus -23.888500 0.087991 69.511398
rthumb -8.497550 -42.563301
root -6.170220 18.193199 -44.623699 379.795990 -70.325401 -371.502014
ltoes -19.694500
lfemur -21.688700 31.418699 -4.666800
64
upperback -0.919317 -5.180530 -0.237726
rfoot -9.445160 -8.072970
lradius 22.739901
lthumb 5.521660 412.187988
rradius 21.752899
lwrist -16.712500
rhand -33.232498 22.979700
rhumerus -69.567497 -12.503500 -77.486702
lowerneck 0.845222 9.223620 13.814700
lhand -20.847401 -337.720001
ltibia 46.884300
head 4.494630 6.527910 -5.999980
rwrist 9.845650
lfingers 7.125020
rtoes -7.716060
lowerback 7.208960 -3.785240 -1.359020
rfingers 7.125020
lclavicle 0.000000 -0.000000
upperneck 9.232850 13.294000 -14.254500
rfemur -41.084999 -9.903940 4.041980
thorax -4.890670 -2.528750 1.094280
rclavicle 0.000000 -0.000000
rtibia 67.907501
lfoot -28.652000 10.107100
lhumerus -17.847500 -13.939200 86.012199
rthumb -6.438690 -6.902420
root -7.349230 18.214399 -44.316502 370.041992 -60.184502 -364.497009
ltoes -24.058500
lfemur -13.374000 22.517200 -2.099700
65
upperback -1.250430 -2.901080 1.560550
rfoot -7.175800 -5.538670
lradius 25.675100
lthumb 7.319230 409.779999
rradius 27.795200
lwrist -13.134600
rhand -32.251499 9.548660
rhumerus -65.980003 -12.186900 -78.488899
lowerneck 0.277374 7.283120 13.898600
lhand -18.985399 -340.072998
ltibia 15.461800
head 4.617980 5.270250 -5.797720
rwrist 6.432430
lfingers 7.125020
rtoes -33.685398
lowerback 5.296630 -2.538200 6.224590
rfingers 7.125020
lclavicle 0.000000 -0.000000
upperneck 10.834800 10.651800 -12.978000
rfemur -18.935301 13.638700 1.607070
thorax -4.505250 -1.585460 -1.593970
rclavicle 0.000000 -0.000000
rtibia 30.579399
lfoot -11.970600 24.892099
lhumerus -26.800400 -24.818399 91.459503
rthumb -5.491580 -20.360201
root -11.366600 18.462900 -45.403999 371.622009 -30.812599 -372.178986
ltoes -12.969500
lfemur -2.734010 -12.324200 17.915100
66
upperback -3.001610 -1.368370 0.866637
rfoot -16.740400 -21.468901
lradius 29.726000
lthumb -2.374550 417.996002
rradius 25.098801
lwrist -5.059270
rhand -30.023899 -9.626090
rhumerus -57.064800 2.953850 -60.913399
lowerneck -5.232920 3.849230 8.125490
lhand -29.023600 -331.970001
ltibia 34.513901
head 4.193440 2.498020 -3.565310
rwrist 17.876400
lfingers 7.125020
rtoes -19.884701
lowerback 2.901570 -1.263660 5.595010
rfingers 7.125020
lclavicle 0.000000 -0.000000
upperneck 9.737760 5.286670 -8.208920
rfemur -11.191000 2.061950 5.742350
thorax -4.858160 -0.859296 -2.136860
rclavicle 0.000000 -0.000000
rtibia 27.403900
lfoot -5.404830 12.698600
lhumerus -27.145500 -9.176080 87.924698
rthumb -3.340560 -39.579700
root -13.364500 19.208599 -46.509201 371.256989 -6.461500 -362.888000
ltoes 4.655230
lfemur -29.507799 9.233130 -0.474859
67
upperback -3.135540 -1.858800 1.305490
rfoot -19.096901 -20.886000
lradius 38.258999
lthumb -2.404410 405.044006
rradius 28.530300
lwrist -7.669400
rhand -34.639599 -14.758300
rhumerus -44.670300 4.714570 -54.024101
lowerneck -5.974960 1.730150 4.863040
lhand -29.054600 -344.923004
ltibia 36.850899
head 2.714930 1.031420 -1.987030
rwrist 11.022000
lfingers 7.125020
rtoes -19.710699
lowerback 2.695470 -1.606830 4.713290
rfingers 7.125020
lclavicle -0.000000 0.000000
upperneck 4.845650 2.130200 -3.751080
rfemur -10.997200 -5.740820 6.954350
thorax -4.870740 -1.064600 -1.156480
rclavicle -0.000000 0.000000
rtibia 31.151600
lfoot -3.249940 21.475800
lhumerus -37.404999 -9.725010 87.451797
rthumb -7.796970 -44.594501
root -13.334100 18.969500 -46.917000 370.835999 2.542220 -363.118988
ltoes 11.077100
lfemur -26.048800 10.175700 3.547880
68
upperback -3.445840 -1.084190 0.827683
rfoot -17.417999 -25.389099
lradius 46.560200
lthumb 1.460800 406.128998
rradius 38.854599
lwrist -5.947990
rhand -34.915699 -7.441060
rhumerus -45.157200 -5.383870 -59.681599
lowerneck -1.699910 -1.735060 1.956230
lhand -25.052601 -343.846008
ltibia 30.505899
head 0.582351 -1.172720 -0.912036
rwrist 4.084990
lfingers 7.125020
rtoes -23.970800
lowerback 1.490640 -0.978917 5.060180
rfingers 7.125020
lclavicle 0.000000 0.000000
upperneck 1.134820 -2.331860 -1.848900
rfemur -4.480920 -5.933580 -0.475565
thorax -4.483430 -0.697619 -1.918340
rclavicle 0.000000 0.000000
rtibia 29.992201
lfoot -0.413356 20.933100
lhumerus -43.664200 -7.243300 82.322899
rthumb -8.063380 -37.267200
root -10.932600 18.055201 -46.568100 370.411011 10.379900 -362.881989
ltoes -7.702480
lfemur -20.938900 10.043800 11.131800
